<?xml version="1.0" encoding="iso-8859-1"?>
<!-- Generator: Adobe Illustrator 19.0.0, SVG Export Plug-In . SVG Version: 6.00 Build 0)  -->
<svg version="1.1" id="Layer_1" xmlns="http://www.w3.org/2000/svg" xmlns:xlink="http://www.w3.org/1999/xlink" x="0px" y="0px"
	 viewBox="0 0 491.52 491.52" style="enable-background:new 0 0 491.52 491.52;" xml:space="preserve">
<path style="fill:#3A556A;" d="M389.306,0H18.3C8.192,0,0,8.193,0,18.3v371.006c0,10.107,8.192,18.3,18.3,18.3h371.006
	c10.106,0,18.3-8.193,18.3-18.3V18.3C407.606,8.193,399.412,0,389.306,0z"/>
<g>
	<rect x="29.645" y="75.761" style="fill:#EBF0F3;" width="348.314" height="302.182"/>
	<rect x="29.645" y="26.291" style="fill:#EBF0F3;" width="249.062" height="21.069"/>
</g>
<circle style="fill:#FCD462;" cx="301.722" cy="36.823" r="10.532"/>
<circle style="fill:#44C4A1;" cx="334.592" cy="36.823" r="10.532"/>
<circle style="fill:#E56353;" cx="367.411" cy="36.823" r="10.532"/>
<path style="fill:#64798A;" d="M473.22,83.914H102.214c-10.107,0-18.3,8.193-18.3,18.3V473.22c0,10.107,8.192,18.3,18.3,18.3H473.22
	c10.106,0,18.3-8.193,18.3-18.3V102.214C491.52,92.107,483.326,83.914,473.22,83.914z"/>
<g>
	<rect x="113.562" y="159.693" style="fill:#EBF0F3;" width="348.314" height="302.182"/>
	<rect x="113.562" y="110.203" style="fill:#EBF0F3;" width="249.062" height="21.069"/>
</g>
<rect x="113.562" y="450.714" style="fill:#D5D6DB;" width="348.314" height="11.141"/>
<circle style="fill:#FCD462;" cx="385.638" cy="120.74" r="10.532"/>
<circle style="fill:#44C4A1;" cx="418.509" cy="120.74" r="10.532"/>
<circle style="fill:#E56353;" cx="451.328" cy="120.74" r="10.532"/>
<path style="fill:#FFFFFF;" d="M325.848,322.638c-0.694,20.521-17.442,36.973-38.13,36.973c-20.69,0-37.437-16.453-38.131-36.973
	h-25.285c0.693,34.458,28.791,62.191,63.414,62.191c34.625,0,62.721-27.732,63.415-62.191H325.848z"/>
<path style="fill:#D15241;" d="M249.587,322.638c0.694,20.521,17.441,36.973,38.131,36.973c20.689,0,37.436-16.453,38.13-36.973
	H249.587z"/>
<path style="fill:#E56353;" d="M358.264,322.638c-0.694,38.398-31.984,69.326-70.547,69.326c-38.565,0-69.855-30.927-70.548-69.326
	h-38.138v13.439c0,2.579,2.09,4.67,4.669,4.67h12.998c2.4,11.309,6.876,21.832,12.974,31.215l-9.223,9.223
	c-1.825,1.824-1.825,4.781,0,6.605l20.825,20.827c1.825,1.824,4.782,1.824,6.606,0l9.224-9.223
	c9.382,6.097,19.905,10.575,31.213,12.973v12.998c0,2.58,2.092,4.67,4.671,4.67h29.453c2.579,0,4.669-2.09,4.669-4.67v-12.998
	c11.309-2.399,21.834-6.877,31.216-12.973l9.223,9.223c1.824,1.824,4.781,1.824,6.605,0l20.826-20.827
	c1.824-1.824,1.824-4.781,0-6.605l-9.222-9.223c6.097-9.383,10.574-19.907,12.973-31.215h12.999c2.58,0,4.669-2.091,4.669-4.67
	v-13.439H358.264z"/>
<path style="fill:#D15241;" d="M351.131,322.638c-0.694,34.458-28.79,62.191-63.415,62.191c-34.624,0-62.721-27.732-63.414-62.191
	h-7.132c0.693,38.398,31.984,69.326,70.548,69.326c38.563,0,69.853-30.927,70.547-69.326H351.131z"/>
<g>
	<rect x="140.657" y="310.758" style="fill:#64798A;" width="294.144" height="11.878"/>
	<path style="fill:#64798A;" d="M193.466,245.007v-14.132l52.82-24.448v12.785l-39.478,17.832v1.231l39.478,18.279v12.781
		L193.466,245.007z"/>
	<path style="fill:#64798A;" d="M306.497,191.515h11.216l-48.558,104.066h-11.216L306.497,191.515z"/>
	<path style="fill:#64798A;" d="M381.968,230.875v14.132l-52.82,24.329v-12.781l39.469-18.279v-1.231l-39.469-17.832v-12.785
		L381.968,230.875z"/>
</g>
<g>
</g>
<g>
</g>
<g>
</g>
<g>
</g>
<g>
</g>
<g>
</g>
<g>
</g>
<g>
</g>
<g>
</g>
<g>
</g>
<g>
</g>
<g>
</g>
<g>
</g>
<g>
</g>
<g>
</g>
</svg>
