<?xml version="1.0" encoding="iso-8859-1"?>
<!-- Generator: Adobe Illustrator 19.0.0, SVG Export Plug-In . SVG Version: 6.00 Build 0)  -->
<svg version="1.1" id="Capa_1" xmlns="http://www.w3.org/2000/svg" xmlns:xlink="http://www.w3.org/1999/xlink" x="0px" y="0px"
	 viewBox="0 0 491.52 491.52" style="enable-background:new 0 0 491.52 491.52;" xml:space="preserve">
<circle style="fill:#EA8953;" cx="245.76" cy="245.76" r="245.76"/>
<path style="opacity:0.1;enable-background:new    ;" d="M327.987,104.97H115.456c-5.786,0-10.496,4.659-10.496,10.496v212.531
	c0,2.612,0.922,4.966,2.509,6.758c0.358,0.512,0.819,0.922,1.331,1.331l46.643,46.643l1.434,1.434l106.648,106.648
	c121.531-8.691,218.558-105.699,227.281-227.221L336.282,109.066C334.387,106.557,331.366,104.97,327.987,104.97z"/>
<path style="fill:#3A556A;" d="M328,104.96H115.444c-5.791,0-10.484,4.694-10.484,10.484V328c0,5.79,4.693,10.484,10.484,10.484H328
	c5.79,0,10.484-4.694,10.484-10.484V115.444C338.484,109.654,333.79,104.96,328,104.96z"/>
<g>
	<rect x="121.943" y="148.367" style="fill:#EBF0F3;" width="199.557" height="173.138"/>
	<rect x="121.943" y="120.023" style="fill:#EBF0F3;" width="142.694" height="12.068"/>
</g>
<circle style="fill:#FCD462;" cx="277.811" cy="126.06" r="6.036"/>
<circle style="fill:#44C4A1;" cx="296.643" cy="126.06" r="6.036"/>
<circle style="fill:#E56353;" cx="315.443" cy="126.06" r="6.036"/>
<path style="fill:#64798A;" d="M376.076,153.036H163.52c-5.791,0-10.484,4.694-10.484,10.484v212.556
	c0,5.79,4.693,10.484,10.484,10.484h212.556c5.79,0,10.484-4.694,10.484-10.484V163.52
	C386.56,157.73,381.865,153.036,376.076,153.036z"/>
<g>
	<rect x="170.035" y="196.454" style="fill:#EBF0F3;" width="199.557" height="173.138"/>
	<rect x="170.035" y="168.1" style="fill:#EBF0F3;" width="142.694" height="12.073"/>
</g>
<rect x="170.035" y="363.192" style="fill:#D5D6DB;" width="199.557" height="6.385"/>
<circle style="fill:#FCD462;" cx="325.888" cy="174.131" r="6.036"/>
<circle style="fill:#44C4A1;" cx="344.73" cy="174.131" r="6.036"/>
<circle style="fill:#E56353;" cx="363.52" cy="174.131" r="6.036"/>
<path style="fill:#FFFFFF;" d="M291.644,289.805c-0.398,11.757-9.993,21.182-21.845,21.182c-11.854,0-21.448-9.426-21.846-21.182
	h-14.486c0.397,19.742,16.495,35.63,36.331,35.63c19.837,0,35.934-15.888,36.332-35.63H291.644z"/>
<path style="fill:#D15241;" d="M247.952,289.805c0.398,11.757,9.992,21.182,21.846,21.182c11.853,0,21.448-9.426,21.845-21.182
	H247.952z"/>
<path style="fill:#E56353;" d="M310.216,289.805c-0.397,21.999-18.324,39.718-40.417,39.718c-22.094,0-40.021-17.719-40.418-39.718
	h-21.85v7.699c0,1.478,1.198,2.676,2.675,2.676h7.447c1.375,6.479,3.939,12.508,7.433,17.884l-5.284,5.284
	c-1.046,1.045-1.046,2.739,0,3.784l11.931,11.932c1.046,1.045,2.74,1.045,3.785,0l5.284-5.284
	c5.375,3.493,11.404,6.059,17.883,7.433v7.447c0,1.478,1.199,2.676,2.676,2.676h16.874c1.478,0,2.675-1.198,2.675-2.676v-7.447
	c6.479-1.374,12.509-3.94,17.884-7.433l5.284,5.284c1.045,1.045,2.739,1.045,3.784,0l11.932-11.932c1.045-1.045,1.045-2.739,0-3.784
	l-5.283-5.284c3.493-5.376,6.058-11.405,7.433-17.884h7.448c1.478,0,2.675-1.198,2.675-2.676v-7.699H310.216z"/>
<path style="fill:#D15241;" d="M306.129,289.805c-0.397,19.742-16.494,35.63-36.332,35.63c-19.836,0-35.934-15.888-36.331-35.63
	h-4.086c0.397,21.999,18.324,39.718,40.418,39.718c22.093,0,40.02-17.719,40.417-39.718H306.129z"/>
<g>
	<rect x="185.549" y="282.982" style="fill:#64798A;" width="168.504" height="6.804"/>
	<path style="fill:#64798A;" d="M215.8,245.328v-8.096l30.261-14.007v7.325l-22.618,10.216v0.706l22.618,10.472v7.323L215.8,245.328
		z"/>
	<path style="fill:#64798A;" d="M280.558,214.682h6.426l-27.82,59.621h-6.426L280.558,214.682z"/>
	<path style="fill:#64798A;" d="M323.796,237.232v8.096l-30.261,13.939v-7.323l22.612-10.472v-0.706l-22.612-10.216v-7.325
		L323.796,237.232z"/>
</g>
<g>
</g>
<g>
</g>
<g>
</g>
<g>
</g>
<g>
</g>
<g>
</g>
<g>
</g>
<g>
</g>
<g>
</g>
<g>
</g>
<g>
</g>
<g>
</g>
<g>
</g>
<g>
</g>
<g>
</g>
</svg>
