<?xml version="1.0" encoding="iso-8859-1"?>
<!-- Generator: Adobe Illustrator 21.0.0, SVG Export Plug-In . SVG Version: 6.00 Build 0)  -->
<svg version="1.1" id="Capa_1" xmlns="http://www.w3.org/2000/svg" xmlns:xlink="http://www.w3.org/1999/xlink" x="0px" y="0px"
	 viewBox="0 0 512 512" style="enable-background:new 0 0 512 512;" xml:space="preserve">
<path style="fill:#22B27F;" d="M417.085,454.956C373.091,490.619,317.046,512,256,512C114.615,512,0,397.385,0,256S114.615,0,256,0
	s256,114.615,256,256c0,56.525-18.333,108.76-49.359,151.114C437.932,409.69,418.474,429.912,417.085,454.956z"/>
<path style="fill:#004B92;" d="M420.961,122.696l-30.236-6.047c-1.61-5.46-3.77-10.684-6.446-15.59l17.096-25.645
	c2.644-3.966,2.121-9.247-1.25-12.618l-9.619-9.619c-3.371-3.371-8.652-3.894-12.618-1.25l-25.645,17.097
	c-4.906-2.676-10.13-4.836-15.59-6.446l-6.047-30.235c-0.935-4.674-5.039-8.039-9.806-8.039h-13.604
	c-4.767,0-8.871,3.365-9.806,8.039l-6.047,30.235c-5.46,1.61-10.684,3.77-15.59,6.446l-25.645-17.097
	c-3.966-2.644-9.248-2.121-12.618,1.25l-9.619,9.619c-3.371,3.371-3.894,8.652-1.25,12.618l17.096,25.645
	c-2.675,4.906-4.836,10.13-6.446,15.59l-30.236,6.047c-4.674,0.935-8.039,5.039-8.039,9.806v13.604c0,4.767,3.365,8.871,8.039,9.806
	l30.236,6.047c1.61,5.46,3.77,10.684,6.446,15.59l-17.097,25.645c-2.644,3.966-2.121,9.247,1.25,12.618l9.619,9.619
	c3.371,3.371,8.652,3.894,12.618,1.25l25.645-17.096c4.906,2.676,10.13,4.836,15.59,6.446l6.047,30.236
	c0.935,4.674,5.039,8.039,9.806,8.039h13.604c4.767,0,8.871-3.365,9.806-8.039l6.047-30.236c5.46-1.61,10.684-3.77,15.59-6.446
	l25.645,17.096c3.966,2.644,9.247,2.121,12.618-1.25l9.619-9.619c3.371-3.371,3.894-8.652,1.25-12.618l-17.096-25.645
	c2.676-4.906,4.836-10.13,6.446-15.59l30.236-6.047c4.674-0.935,8.039-5.039,8.039-9.806v-13.604
	C429,127.735,425.635,123.631,420.961,122.696z M314,165.97c-14.728,0-26.667-11.939-26.667-26.667s11.939-26.667,26.667-26.667
	s26.667,11.939,26.667,26.667S328.728,165.97,314,165.97z"/>
<path style="fill:#002C5D;" d="M314,79.304c-33.137,0-60,26.863-60,60s26.863,60,60,60s60-26.863,60-60S347.137,79.304,314,79.304z
	 M314,165.97c-14.728,0-26.667-11.939-26.667-26.667s11.939-26.667,26.667-26.667s26.667,11.939,26.667,26.667
	S328.728,165.97,314,165.97z"/>
<path style="fill:#FD3D96;" d="M90,211.139H66.468c-9.648,0-17.468-7.821-17.468-17.468v-26.203C49,157.821,56.821,150,66.468,150
	H90c9.648,0,17.468,7.821,17.468,17.468v26.203C107.468,203.318,99.648,211.139,90,211.139z"/>
<path style="fill:#FD5CA6;" d="M446.376,211.139H85.625c-9.181,0-16.624-7.821-16.624-17.468v-26.203
	C69,157.821,76.443,150,85.625,150h126.346h234.405c9.181,0,16.624,7.821,16.624,17.468v26.203
	C463,203.318,455.557,211.139,446.376,211.139z"/>
<path style="fill:#C2186C;" d="M83.937,172.709c0,4.824-3.91,8.734-8.734,8.734s-8.734-3.91-8.734-8.734
	c0-4.824,3.91-8.734,8.734-8.734S83.937,167.885,83.937,172.709z M101.405,163.975c-4.824,0-8.734,3.91-8.734,8.734
	c0,4.824,3.91,8.734,8.734,8.734s8.734-3.91,8.734-8.734C110.139,167.885,106.229,163.975,101.405,163.975z M127.608,163.975
	c-4.824,0-8.734,3.91-8.734,8.734c0,4.824,3.91,8.734,8.734,8.734c4.824,0,8.734-3.91,8.734-8.734
	C136.342,167.885,132.431,163.975,127.608,163.975z"/>
<path style="fill:#FFF5F5;" d="M463,406.621c-13.381,18.359-29.143,34.867-46.835,49.075H251.633H95.835
	C78.143,441.488,62.381,424.98,49,406.621v-212.95h414V406.621z"/>
<path style="fill:#B0DDE9;" d="M162.544,455.696H57.734c-4.824,0-8.734-3.91-8.734-8.734V263.544V193.67h113.544V455.696z"/>
<path style="fill:#8ED0E1;" d="M77.804,455.696h-20.07c-4.824,0-8.734-3.911-8.734-8.734V263.544V193.67h20.07v69.874v183.417
	C69.07,451.786,72.98,455.696,77.804,455.696z"/>
<path style="fill:#56BCD6;" d="M66.468,302.215v-7.468c0-2.761,2.239-5,5-5h59.873c2.761,0,5,2.239,5,5v7.468c0,2.761-2.239,5-5,5
	H71.468C68.707,307.215,66.468,304.977,66.468,302.215z M71.468,272.278h51.139c2.761,0,5-2.238,5-5v-7.468c0-2.761-2.239-5-5-5
	H71.468c-2.761,0-5,2.239-5,5v7.468C66.468,270.04,68.707,272.278,71.468,272.278z M140.076,394.557H71.468c-2.761,0-5,2.239-5,5
	v7.469c0,2.761,2.239,5,5,5h68.608c2.761,0,5-2.239,5-5v-7.469C145.076,396.795,142.837,394.557,140.076,394.557z M71.468,377.089
	h51.139c2.761,0,5-2.239,5-5v-7.469c0-2.761-2.239-5-5-5H71.468c-2.761,0-5,2.239-5,5v7.469
	C66.468,374.85,68.707,377.089,71.468,377.089z M140.076,324.684H71.468c-2.761,0-5,2.239-5,5v7.468c0,2.761,2.239,5,5,5h68.608
	c2.761,0,5-2.239,5-5v-7.468C145.076,326.922,142.837,324.684,140.076,324.684z"/>
<path style="fill:#17B0CE;" d="M145.076,224.874v7.468c0,2.761-2.239,5-5,5H71.468c-2.761,0-5-2.239-5-5v-7.468c0-2.761,2.239-5,5-5
	h68.608C142.837,219.874,145.076,222.112,145.076,224.874z"/>
<path style="fill:#FBC56D;" d="M180.013,232.342v-7.468c0-2.761,2.239-5,5-5h51.139c2.761,0,5,2.239,5,5v7.468c0,2.761-2.239,5-5,5
	h-51.139C182.251,237.342,180.013,235.103,180.013,232.342z M358.43,289.747H228.684c-2.761,0-5,2.239-5,5v7.468
	c0,2.761,2.239,5,5,5H358.43c2.761,0,5-2.239,5-5v-7.468C363.43,291.985,361.192,289.747,358.43,289.747z M332.228,359.62H228.684
	c-2.761,0-5,2.239-5,5v7.469c0,2.761,2.239,5,5,5h103.544c2.761,0,5-2.239,5-5v-7.469
	C337.228,361.859,334.989,359.62,332.228,359.62z M228.684,342.152h59.873c2.761,0,5-2.239,5-5v-7.468c0-2.761-2.239-5-5-5h-59.873
	c-2.761,0-5,2.239-5,5v7.468C223.684,339.913,225.922,342.152,228.684,342.152z M428.304,289.747h-42.405c-2.761,0-5,2.239-5,5
	v7.468c0,2.761,2.239,5,5,5h42.405c2.761,0,5-2.239,5-5v-7.468C433.304,291.985,431.065,289.747,428.304,289.747z M185.013,272.278
	h86.076c2.761,0,5-2.238,5-5v-7.468c0-2.761-2.239-5-5-5h-86.076c-2.761,0-5,2.239-5,5v7.468
	C180.013,270.04,182.251,272.278,185.013,272.278z M271.089,394.557h-86.076c-2.761,0-5,2.239-5,5v7.469c0,2.761,2.239,5,5,5h86.076
	c2.761,0,5-2.239,5-5v-7.469C276.089,396.795,273.85,394.557,271.089,394.557z"/>
<path style="fill:#FD73C4;" d="M206.215,329.684v7.468c0,2.761-2.239,5-5,5h-16.203c-2.761,0-5-2.239-5-5v-7.468
	c0-2.761,2.239-5,5-5h16.203C203.977,324.684,206.215,326.922,206.215,329.684z M375.899,324.684h-59.873c-2.761,0-5,2.239-5,5
	v7.468c0,2.761,2.239,5,5,5h59.873c2.761,0,5-2.239,5-5v-7.468C380.899,326.922,378.66,324.684,375.899,324.684z M201.215,359.62
	h-16.203c-2.761,0-5,2.239-5,5v7.469c0,2.761,2.239,5,5,5h16.203c2.761,0,5-2.239,5-5v-7.469
	C206.215,361.859,203.977,359.62,201.215,359.62z M319.76,232.342v-7.468c0-2.761-2.239-5-5-5h-51.14c-2.761,0-5,2.239-5,5v7.468
	c0,2.761,2.239,5,5,5h51.139C317.521,237.342,319.76,235.103,319.76,232.342z M201.215,289.747h-16.203c-2.761,0-5,2.239-5,5v7.468
	c0,2.761,2.239,5,5,5h16.203c2.761,0,5-2.239,5-5v-7.468C206.215,291.985,203.977,289.747,201.215,289.747z"/>
<g>
</g>
<g>
</g>
<g>
</g>
<g>
</g>
<g>
</g>
<g>
</g>
<g>
</g>
<g>
</g>
<g>
</g>
<g>
</g>
<g>
</g>
<g>
</g>
<g>
</g>
<g>
</g>
<g>
</g>
</svg>
