<svg height="512pt" viewBox="0 0 512 512" width="512pt" xmlns="http://www.w3.org/2000/svg"><path d="m512 256c0 141.386719-114.613281 256-256 256s-256-114.613281-256-256 114.613281-256 256-256 256 114.613281 256 256zm0 0" fill="#414952"/><path d="m280.589844 510.820312c129.847656-12.378906 231.410156-121.730468 231.410156-254.820312 0-8.824219-.445312-17.546875-1.320312-26.140625l-74.351563-74.355469-83.285156 134.632813-182.429688-182.425781-61.339843 7.753906 58.269531 58.269531-10.140625 198.878906 46.332031 49.523438-5.574219 6.253906zm0 0" fill="#333940"/><path d="m396.449219 324.75h-238.335938v-169.246094h278.214844zm0 0" fill="#ffd400"/><path d="m436.328125 155.503906h-180.328125v169.246094h140.449219zm0 0" fill="#fdba12"/><path d="m379.378906 388.949219h-186.070312c-26.296875 0-47.695313-21.398438-47.695313-47.695313v-214.925781l-36.339843-10.863281 7.160156-23.953125 54.179687 16.199219v233.542968c0 12.511719 10.183594 22.695313 22.695313 22.695313h186.070312zm0 0" fill="#fe6a16"/><path d="m256 363.949219h123.378906v25h-123.378906zm0 0" fill="#f24500"/><path d="m236.835938 412.324219c0 12.523437-10.152344 22.675781-22.675782 22.675781-12.523437 0-22.671875-10.152344-22.671875-22.675781 0-12.519531 10.148438-22.671875 22.671875-22.671875 12.523438 0 22.675782 10.152344 22.675782 22.671875zm0 0" fill="#fff"/><path d="m362.792969 412.324219c0 12.523437-10.152344 22.675781-22.675781 22.675781-12.519532 0-22.671876-10.152344-22.671876-22.675781 0-12.519531 10.152344-22.671875 22.671876-22.671875 12.523437 0 22.675781 10.152344 22.675781 22.671875zm0 0" fill="#f2f6fc"/></svg>